<?xml version="1.0" encoding="UTF-8"?>
<svg version="1.1" viewBox="0 0 2048 682" width="1280" height="1280" xmlns="http://www.w3.org/2000/svg">
<path transform="translate(0)" d="m0 0h2048v682h-2048z" fill="#80C1FC"/>
<path transform="translate(1042)" d="m0 0h1006v682h-228l-12-11-17-13-15-10-27-14-19-7-17-4-10-1-65-3-19-2-15-4-12-5-11-7-10-9-11-14-9-16-12-27-23-69-8-18-7-11-8-11-6-6 7-2 25 9 24 11 16 9 12 9 8 9 4 10v15l-5 17-9 20-10 19-1 3v8l4 6 6 3 9-1 5-4 14-26 8-19 6-21 1-18-2-12-5-12-7-10-10-10-16-11-18-10-22-10-18-7-1-3 6-18 5-23 2-16v-17l-3-25-5-28-3-13 1-1h59l20-3 16-5 10-6 7-6 6-12 1-4v-22l-5-19-6-16-14-29-14-26-15-25-6-5-8-1-6 3-4 5-1 7 8 16 16 29 15 29 9 20 4 14 1 11-3 7-5 5-14 4-8 1h-63l-7-2-4-15-4-17-1-5 14-12 8-10 8-14 5-15 2-14v-12l-2-13-5-15-8-15-11-13-12-9-15-8-14-4-7-1h-22l-14 3-13 5-14 9-11 10-10 14-6 13-4 14-1 7v19l4 18 4 9 6 11 8 10 8 8 14 9 11 5 15 4 18 1 18-2 6 23v3l-4 1-202 12-11 1-6 3-3 3-1 3v8l4 7 4 2h21l119-7 72-4 12-1 2 3 8 37 3 22v27l-3 18-7 24-3 9-20 8-29 11-24 10-9-1-31 5h-20l-15-3-12-5-9-6-8-7-7-10-9-15-15-33-11-21-8-10-10-10-15-9-15-6-24-6-52-10-20-6-16-8-10-7-9-9-7-11-6-16-4-18-1-9-1-97-2-26-4-18-7-20-10-21-2-3z" fill="#FEFEFE"/>
<path transform="translate(319)" d="m0 0h723l11 23 8 20 4 16 2 15 1 17 1 97 3 19 5 17 6 12 7 9 7 7 13 8 11 5 20 6 57 11 22 6 16 7 12 8 13 13 9 14 11 22 9 20 7 14 8 12 7 8 10 7 11 5 11 3 7 1h20l31-5 9 1 29-12 42-16h2l2-9 7-24 3-18v-27l-4-27-7-32-1-2-49 3-119 7-35 2h-21l-6-4-3-6v-8l3-5 5-4 3-1 43-3 121-7 53-3-6-23v-3l-8 2-16 1-17-2-15-5-13-7-10-8-9-9-7-10-6-12-4-13-2-10v-19l3-15 5-13 7-12 9-11 10-9 13-8 16-6 11-2h22l14 3 11 4 11 6 9 7 8 7 9 12 8 17 4 14 1 9v12l-2 14-5 15-6 11-10 13-11 10-3 2 2 9 6 26 1 2 6 1h63l16-3 9-4 3-5 1-8-3-14-5-14-12-25-12-23-13-23-8-16 1-7 6-7 5-2 8 1 7 6 17 29 13 24 14 29 8 24 2 9v22l-4 11-6 8-8 6-12 6-15 4-16 2h-59l7 34 3 21 1 11v17l-4 27-6 22-3 10 27 11 21 10 18 11 11 9 10 10 8 14 3 10 1 16-2 14-6 20-12 26-9 16-6 5-9 1-6-3-4-5-1-2v-8l8-16 10-21 6-18 1-4v-15l-4-10-9-10-15-10-21-11-25-10-15-5-4 2 5 5 6 8 7 11 8 16 7 19 13 41 7 19 12 26 9 15 13 15 11 8 14 7 13 4 11 2 51 3 27 1 15 2 15 4 16 6 22 11 19 12 16 13 11 9 3 4h-755l-14-10-11-9-10-8-12-11-12-13-9-11-13-18-12-19-14-25-8-15-11-23-16-34-9-20-2-1-3-15-1-7-1-17-2-10-3-6 4 13 4 47v8l-1 1-13-1-3-3-2-8-1-9-1-1-7 12-4 4-13-1-9-3-6-5-8-16-4-10v-9l12-14 14-15 8-7 3-1h7l-12-22-12-20-8-12-10-14-10-13-10-11-7-8-14-13-13-10-10-7-14-8-9-5-1-5 5-4 3-1 1-2-20 8-3-1-2-6-3-36v-11l-17 9-6 17-3 9-11-2 3 3v3h-11l-24-4-5-2-1-4 5-8 1-3 1-11 1-3v-8l-4 24-3 5-14 9-11 6h-8l-31-9-7-5-5-1v-2h-2l1-21-3-54h-1l2 28v36l-1 15-4 2-16 2-3-2-2-11-1-7-1 4-11 2-3-4-8-25-1-10 5-4 4-5 3-7 3-11v-9l-6-12 5 13v9l-8 18-5 5-3 2 2 10 9 29 3 9v6l-22 6-5-1-5-10-8-21-4-9-8 1-5 2-1 4-1 20-1 7-1 1h-14l-15 2-2-4-1-20-1-40-5-2-16-12-16-13-5-4v-2l-4-2-6-6v-2l-3-1-7-8-8-9-11-14-10-14-12-19-12-22-9-20-4-8z" fill="#ABD5FD"/>
<path transform="translate(1663)" d="m0 0h385v622l-5-2-14-10-13-11-15-14-11-14-7-10-8-14-6-13-6-20-2-12-1-12v-15l3-27 6-26 13-40 8-24 5-22 1-7v-26l-4-17-5-10-8-11-9-9-17-12-22-12-34-17-19-12-14-12-9-11-8-15-5-16-10-60-4-16-8-15-7-8-10-7-12-6-12-4-17-3-45-5-20-4-12-4-14-8-7-6z" fill="#ACD6FE"/>
<path transform="translate(1440,28)" d="m0 0h22l14 3 11 4 11 6 9 7 8 7 9 12 8 17 4 14 1 9v12l-2 14-5 15-6 11-10 13-11 10-3 2 2 9 6 26 1 2 6 1h63l16-3 9-4 3-5 1-8-3-14-5-14-12-25-12-23-13-23-8-16 1-7 6-7 5-2 8 1 7 6 17 29 13 24 14 29 8 24 2 9v22l-4 11-6 8-8 6-12 6-15 4-16 2h-59l7 34 3 21 1 11v17l-4 27-6 22-3 10 27 11 21 10 18 11 11 9 10 10 8 14 3 10 1 16-2 14-6 20-12 26-9 16-6 5-9 1-6-3-4-5-1-2v-8l8-16 10-21 6-18 1-4v-15l-4-10-9-10-15-10-21-11-25-10-14-5h-6l-41 16-29 12-29 14-20 11-11 8-11 9-8 8-9 13-8 16-11 33-3 8-6 5-8 1-8-4-4-7 1-10 7-25 8-20 10-17 9-12 16-16 15-11 13-8 18-10 29-14 45-18 29-11h2l2-9 7-24 3-18v-27l-4-27-7-32-1-2-49 3-119 7-35 2h-21l-6-4-3-6v-8l3-5 5-4 3-1 43-3 121-7 53-3-6-23v-3l-8 2-16 1-17-2-15-5-13-7-10-8-9-9-7-10-6-12-4-13-2-10v-19l3-15 5-13 7-12 9-11 10-9 13-8 16-6z" fill="#020102"/>
<path transform="translate(1449,56)" d="m0 0 14 1 13 4 12 8 8 8 8 13 4 14v18l-4 14-6 11-6 7-9 7-12 6-10 3h-19l-13-4-11-6-11-10-8-13-4-12-1-6v-11l4-16 7-13 7-8 13-9 10-4z" fill="#FEFEFC"/>
<path transform="translate(482,102)" d="m0 0h24l14 4 10 6 7 8 5 10 1 4v9l-8 18-5 5-3 2 2 10 9 29 3 9v6l-22 6-5-1-5-10-8-21-4-9-8 1-5 2-1 4-1 20-1 7-1 1h-14l-15 2-2-4v-111l3-2z" fill="#FEDB5E"/>
<path transform="translate(703,78)" d="m0 0h17l10 2v7l-5 32-5 38-1 9-1 2 11-5 7-2h9l9 3 1 1 5 52 2 18-3 3-18 7-3-1-2-6-3-36v-11l-17 9-6 17-3 9-8-2-13-5-4-3v-9l14-126z" fill="#FEDB5E"/>
<path transform="translate(470,365)" d="m0 0h17l5 4 10 23 7 14 7 17 4 9 10 26 3 8-1 5-13 4h-6l-4-5-10-19-1-3-13 1-12 2-4 10-3 15-1 1h-15l-10-1-1-2v-8l7-43 7-33 5-19 5-4z" fill="#FDDA5E"/>
<path transform="translate(650,102)" d="m0 0h11l6 5 4 7 1 3-11 8-14 10-5 6-4 14v5l15 13 9 8 4 3-3 22-3 9-10 7-16 9h-8l-31-9-4-3-1-15 1-2 30-2 1-8-2-7-16-26-4-7 1-7 6-18 5-14 3-3 20-5z" fill="#FDDA5E"/>
<path transform="translate(341,374)" d="m0 0h24v41l10-10 11-9 16-11 8-4 9 1 7 3 3 2-1 4-7 7-9 7-11 9-12 8 2 4 10 15 11 17 9 16v3l-24 9-8 1-6-9-10-24-7-12h-1l-1 7-1 26-1 1-9 1h-13l-1-1v-29z" fill="#FDDA5E"/>
<path transform="translate(738,371)" d="m0 0h9v21l7-6 13-8 7-1 13 12 8 9-1 9-4 11h-4l-17-12h-2l-12 17-5 10-4 28-2 17-3 3-17 5h-7l-1-1-2-24-2-39v-32l1-10 4-3 16-5z" fill="#FDDA5E"/>
<path transform="translate(553,392)" d="m0 0h13l3 1 1 20 5-2 13-7h8l14 6 9 6 5 6 1 6v29l-3 37v7l-1 1h-8l-11-3-1-1v-57l-5-5-5-2-16 9-5 5-5 29-1 1-9-1-9-4-2-6-1-13v-24l3-23 3-12 1-2z" fill="#FEDB5E"/>
<path transform="translate(671,390)" d="m0 0 8 1 13 5 9 8 1 8v9l-1 9-5 5-17 8-16 7-5 1 1 2h7l19-6h9l8 8-1 5-9 6-19 10-6 2-9-1-11-6-6-7-4-11-2-12v-13l4-12 6-11 9-8 12-6z" fill="#FDDA5E"/>
<path transform="translate(875,392)" d="m0 0 9 2 6 3 7 6 7 12 2 8 4 47v8l-1 1-13-1-3-3-2-8-1-9-1-1-7 12-4 4-13-1-9-3-6-5-8-16-4-10v-9l12-14 14-15 8-7z" fill="#FDDA5E"/>
<path transform="translate(772,137)" d="m0 0h20l5 2 2 41v14l-1 23-3 3-12 2h-7l-2-5-3-44v-34z" fill="#FFDC5F"/>
<path transform="translate(816,392)" d="m0 0 12 1 3 1 2 40v22l-1 16-2 3-17 3-4-4-3-34v-46l1-1z" fill="#FFDC5F"/>
<path transform="translate(554,137)" d="m0 0h21l3 2 2 28v36l-1 15-4 2-16 2-2-2-2-13-2-36v-25z" fill="#FFDC5F"/>
<path transform="translate(731,191)" d="m0 0h2l4 47 1 6-2-1-1-3-32-8-1-3 3-2 3 1 2-9 2-3 3-9 3-6 9-5h4z" fill="#ACD6FE"/>
<path transform="translate(481,132)" d="m0 0 24 1 5 5v10l-6 7-17 8-5 1-2-3-1-17-1-10z" fill="#ACD6FE"/>
<path transform="translate(213,638)" d="m0 0h7l5 5 5 3 2 2-3 5-4 9-5 12-3 3-6-1-1-6 4-10 1-5h-6l-1-1v-10z" fill="#FFDC5F"/>
<path transform="translate(573,107)" d="m0 0 5 1v20l-1 1-14 2h-8l-1-1v-18l9-3z" fill="#FFDC5F"/>
<path transform="translate(786,108)" d="m0 0h10v20l-8 2-13 1-3-2v-17l9-3z" fill="#FFDC5F"/>
<path transform="translate(824,363)" d="m0 0h6v21l-16 3h-5l-2-2-1-16 5-3z" fill="#FEDB5E"/>
<path transform="translate(99,634)" d="m0 0 7 2 9 2 2 3-1 10-9 7-1 17-1 1h-5l-1-1z" fill="#FFDC5F"/>
<path transform="translate(52,627)" d="m0 0 16 1v5l-6 2 1 4 4 1 1 4-6 1v6h8l1 4-1 2-17 1-1-1-1-29z" fill="#FFDC5F"/>
<path transform="translate(134,636)" d="m0 0h12l1 2v13l-2 6-2 1h-12l-1-3v-18z" fill="#FFDC5F"/>
<path transform="translate(875,417)" d="m0 0 4 2v9l-7 16-3 3-4-1-5-7-1-4 8-11z" fill="#82C2FC"/>
<path transform="translate(184,636)" d="m0 0 5 1 3 2 10 2 2 2v21l-3 1-4-1v-16l-6 1-2 9-5-1z" fill="#FFDC5F"/>
<path transform="translate(151,631)" d="m0 0 18 3 1 1v7h-9l-3 17-6 1-2-1v-27z" fill="#FFDC5F"/>
<path transform="translate(91,632)" d="m0 0 5 1-2 6-4 7v2l4 3v7l-5-1-1-6-4 4-2 3h-6v-6l4-7-5-9v-2l3-1 4 4 1 2 4-2z" fill="#FFDC5F"/>
<path transform="translate(122,621)" d="m0 0 5 1-1 37-1 1h-5l-1-3v-35z" fill="#FFDC5F"/>
<path transform="translate(481,403)" d="m0 0 2 2 5 17 1 7-3 2-10 1 2-13z" fill="#85C3FC"/>
<path transform="translate(680,417)" d="m0 0h5v4l-13 8-8 7-5 1 1-6 4-6 8-5z" fill="#85C3FC"/>
<path transform="translate(481,132)" d="m0 0 24 1 4 6v5l-3-3-2-3-22-1v22l3 1v2h-2l-1 2-2-3-1-17-1-10z" fill="#81C1FC"/>
<path transform="translate(175,628)" d="m0 0 5 1 1 24-1 5h-6v-29z" fill="#FFDC5F"/>
<path transform="translate(730,80)" d="m0 0h1l-1 21-2 10-3 23-1 5-1 17-1 9-2 3h-2l3-28 6-39z" fill="#80C1FC"/>
<path transform="translate(795,107)" d="m0 0h2l1 6v14l-7 8-13 1-5 1-2-2 1-4 24-3z" fill="#80C1FC"/>
<path transform="translate(577,107)" d="m0 0h2l1 7v10l-2 6-4 4-3 1-12 1-4 1v-3h-2l1-3 23-3z" fill="#80C1FC"/>
<path transform="translate(672,114)" d="m0 0 1 4-5 5-5 3h-2v2l-4 3h-2v2l-4 1v2l-5 3-4 8-2 9-1 4-2-1 1-8 4-12 7-7 13-9 9-6z" fill="#80C1FC"/>
<path transform="translate(238,650)" d="m0 0 12 1 2 5-2 2-6-1v-2l-4 3h-5l-1-4z" fill="#FFDC5F"/>
<path transform="translate(119,644)" d="m0 0h1v16h-2v-10h-2l1-5z" fill="#ACD6FE"/>
<path transform="translate(65,633)" d="m0 0h2l-1 6-3 1-2-5z" fill="#ADD6FD"/>
</svg>
